<mxfile host="Electron" modified="2024-09-25T03:52:51.274Z" agent="Mozilla/5.0 (Macintosh; Intel Mac OS X 10_15_7) AppleWebKit/537.36 (KHTML, like Gecko) draw.io/24.6.4 Chrome/124.0.6367.207 Electron/30.0.6 Safari/537.36" etag="VH-d4fysM64qXGLaC3pt" version="24.6.4" type="device" pages="2">
  <diagram name="GPU推理架构" id="2WuskadtR6cd8YkMPvss">
    <mxGraphModel dx="1026" dy="688" grid="1" gridSize="10" guides="1" tooltips="1" connect="1" arrows="1" fold="1" page="1" pageScale="1" pageWidth="827" pageHeight="1169" math="0" shadow="0">
      <root>
        <mxCell id="0" />
        <mxCell id="1" parent="0" />
        <mxCell id="zROR34g2-MNcbqRIwqFh-1" value="模型服务" style="rounded=0;whiteSpace=wrap;html=1;" vertex="1" parent="1">
          <mxGeometry x="600" y="200" width="120" height="60" as="geometry" />
        </mxCell>
        <mxCell id="zROR34g2-MNcbqRIwqFh-3" style="edgeStyle=orthogonalEdgeStyle;rounded=0;orthogonalLoop=1;jettySize=auto;html=1;exitX=1;exitY=0.5;exitDx=0;exitDy=0;entryX=0;entryY=0.5;entryDx=0;entryDy=0;" edge="1" parent="1" source="zROR34g2-MNcbqRIwqFh-2" target="zROR34g2-MNcbqRIwqFh-1">
          <mxGeometry relative="1" as="geometry" />
        </mxCell>
        <mxCell id="zROR34g2-MNcbqRIwqFh-2" value="队列处理服务" style="rounded=0;whiteSpace=wrap;html=1;" vertex="1" parent="1">
          <mxGeometry x="400" y="200" width="120" height="60" as="geometry" />
        </mxCell>
        <mxCell id="zROR34g2-MNcbqRIwqFh-6" style="edgeStyle=orthogonalEdgeStyle;rounded=0;orthogonalLoop=1;jettySize=auto;html=1;exitX=1;exitY=0.5;exitDx=0;exitDy=0;entryX=0;entryY=0.5;entryDx=0;entryDy=0;" edge="1" parent="1" source="zROR34g2-MNcbqRIwqFh-4" target="zROR34g2-MNcbqRIwqFh-5">
          <mxGeometry relative="1" as="geometry" />
        </mxCell>
        <mxCell id="zROR34g2-MNcbqRIwqFh-11" style="edgeStyle=orthogonalEdgeStyle;rounded=0;orthogonalLoop=1;jettySize=auto;html=1;exitX=0.5;exitY=1;exitDx=0;exitDy=0;" edge="1" parent="1" source="zROR34g2-MNcbqRIwqFh-4" target="zROR34g2-MNcbqRIwqFh-10">
          <mxGeometry relative="1" as="geometry" />
        </mxCell>
        <mxCell id="zROR34g2-MNcbqRIwqFh-4" value="任务管理服务" style="rounded=0;whiteSpace=wrap;html=1;" vertex="1" parent="1">
          <mxGeometry x="80" y="200" width="120" height="60" as="geometry" />
        </mxCell>
        <mxCell id="zROR34g2-MNcbqRIwqFh-7" style="edgeStyle=orthogonalEdgeStyle;rounded=0;orthogonalLoop=1;jettySize=auto;html=1;exitX=1;exitY=0.5;exitDx=0;exitDy=0;entryX=0;entryY=0.5;entryDx=0;entryDy=0;" edge="1" parent="1" source="zROR34g2-MNcbqRIwqFh-5" target="zROR34g2-MNcbqRIwqFh-2">
          <mxGeometry relative="1" as="geometry" />
        </mxCell>
        <mxCell id="zROR34g2-MNcbqRIwqFh-5" value="任务队列" style="shape=step;perimeter=stepPerimeter;whiteSpace=wrap;html=1;fixedSize=1;" vertex="1" parent="1">
          <mxGeometry x="240" y="200" width="120" height="60" as="geometry" />
        </mxCell>
        <mxCell id="zROR34g2-MNcbqRIwqFh-9" style="edgeStyle=orthogonalEdgeStyle;rounded=0;orthogonalLoop=1;jettySize=auto;html=1;exitX=0.5;exitY=1;exitDx=0;exitDy=0;" edge="1" parent="1" source="zROR34g2-MNcbqRIwqFh-8" target="zROR34g2-MNcbqRIwqFh-4">
          <mxGeometry relative="1" as="geometry" />
        </mxCell>
        <mxCell id="zROR34g2-MNcbqRIwqFh-8" value="spark任务&lt;div&gt;hive to request&lt;/div&gt;" style="rounded=0;whiteSpace=wrap;html=1;" vertex="1" parent="1">
          <mxGeometry x="80" y="80" width="120" height="60" as="geometry" />
        </mxCell>
        <mxCell id="zROR34g2-MNcbqRIwqFh-10" value="spark任务&lt;div&gt;mysql to hive&lt;/div&gt;" style="rounded=0;whiteSpace=wrap;html=1;" vertex="1" parent="1">
          <mxGeometry x="80" y="320" width="120" height="60" as="geometry" />
        </mxCell>
        <mxCell id="zROR34g2-MNcbqRIwqFh-12" value="任务详情表&lt;div&gt;mysql&lt;/div&gt;" style="shape=cylinder3;whiteSpace=wrap;html=1;boundedLbl=1;backgroundOutline=1;size=15;" vertex="1" parent="1">
          <mxGeometry x="270" y="300" width="60" height="80" as="geometry" />
        </mxCell>
        <mxCell id="zROR34g2-MNcbqRIwqFh-13" style="edgeStyle=orthogonalEdgeStyle;rounded=0;orthogonalLoop=1;jettySize=auto;html=1;exitX=0.75;exitY=1;exitDx=0;exitDy=0;entryX=0.145;entryY=0;entryDx=0;entryDy=4.35;entryPerimeter=0;" edge="1" parent="1" source="zROR34g2-MNcbqRIwqFh-4" target="zROR34g2-MNcbqRIwqFh-12">
          <mxGeometry relative="1" as="geometry" />
        </mxCell>
        <mxCell id="zROR34g2-MNcbqRIwqFh-14" style="edgeStyle=orthogonalEdgeStyle;rounded=0;orthogonalLoop=1;jettySize=auto;html=1;exitX=0.25;exitY=1;exitDx=0;exitDy=0;entryX=0.855;entryY=0;entryDx=0;entryDy=4.35;entryPerimeter=0;" edge="1" parent="1" source="zROR34g2-MNcbqRIwqFh-2" target="zROR34g2-MNcbqRIwqFh-12">
          <mxGeometry relative="1" as="geometry" />
        </mxCell>
      </root>
    </mxGraphModel>
  </diagram>
  <diagram id="U2rKAwaGc64_2rong8lf" name="CPU推理架构">
    <mxGraphModel dx="1026" dy="688" grid="1" gridSize="10" guides="1" tooltips="1" connect="1" arrows="1" fold="1" page="1" pageScale="1" pageWidth="827" pageHeight="1169" math="0" shadow="0">
      <root>
        <mxCell id="0" />
        <mxCell id="1" parent="0" />
        <mxCell id="281Z0cS-eHhEEVn4xjFs-16" style="edgeStyle=orthogonalEdgeStyle;rounded=0;orthogonalLoop=1;jettySize=auto;html=1;exitX=1;exitY=0.25;exitDx=0;exitDy=0;entryX=0;entryY=0.25;entryDx=0;entryDy=0;" edge="1" parent="1" source="281Z0cS-eHhEEVn4xjFs-10" target="281Z0cS-eHhEEVn4xjFs-15">
          <mxGeometry relative="1" as="geometry" />
        </mxCell>
        <mxCell id="281Z0cS-eHhEEVn4xjFs-10" value="spark任务&lt;div&gt;hive to df&lt;/div&gt;" style="rounded=0;whiteSpace=wrap;html=1;" vertex="1" parent="1">
          <mxGeometry x="80" y="80" width="120" height="60" as="geometry" />
        </mxCell>
        <mxCell id="281Z0cS-eHhEEVn4xjFs-17" style="edgeStyle=orthogonalEdgeStyle;rounded=0;orthogonalLoop=1;jettySize=auto;html=1;exitX=0;exitY=0.75;exitDx=0;exitDy=0;entryX=1;entryY=0.75;entryDx=0;entryDy=0;" edge="1" parent="1" source="281Z0cS-eHhEEVn4xjFs-15" target="281Z0cS-eHhEEVn4xjFs-10">
          <mxGeometry relative="1" as="geometry" />
        </mxCell>
        <mxCell id="281Z0cS-eHhEEVn4xjFs-15" value="模型模块" style="rounded=0;whiteSpace=wrap;html=1;" vertex="1" parent="1">
          <mxGeometry x="280" y="80" width="120" height="60" as="geometry" />
        </mxCell>
      </root>
    </mxGraphModel>
  </diagram>
</mxfile>
